<svg width="25" height="26" viewBox="0 0 25 26" fill="none" xmlns="http://www.w3.org/2000/svg">
<path d="M5.87109 3.32422C5.10938 3.48828 4.40625 3.63477 3.76172 3.76367C3.48047 3.82227 3.19922 3.875 2.91797 3.92188C2.64844 3.96875 2.39062 4.01562 2.14453 4.0625C1.89844 4.09766 1.67578 4.12695 1.47656 4.15039C1.28906 4.17383 1.14844 4.18555 1.05469 4.18555C0.855469 4.18555 0.685547 4.15039 0.544922 4.08008C0.416016 3.99805 0.351562 3.83984 0.351562 3.60547V1.63672C0.351562 1.41406 0.445312 1.21484 0.632812 1.03906C0.820312 0.851562 1.11328 0.757812 1.51172 0.757812H23.3262C23.7246 0.757812 24.0176 0.851562 24.2051 1.03906C24.3926 1.21484 24.4863 1.41406 24.4863 1.63672V3.60547C24.4863 3.83984 24.416 3.99805 24.2754 4.08008C24.1465 4.15039 23.9824 4.18555 23.7832 4.18555C23.6777 4.18555 23.5312 4.17383 23.3438 4.15039C23.1562 4.12695 22.9395 4.09766 22.6934 4.0625C22.4473 4.01562 22.1836 3.96875 21.9023 3.92188C21.6328 3.875 21.3574 3.82227 21.0762 3.76367C20.4316 3.63477 19.7285 3.48828 18.9668 3.32422V23.5918C18.9668 23.9902 18.9316 24.3418 18.8613 24.6465C18.791 24.9395 18.6562 25.1914 18.457 25.4023C18.2695 25.6016 18.0059 25.7539 17.666 25.8594C17.3262 25.9531 16.8926 26 16.3652 26H8.52539C7.97461 26 7.52344 25.9473 7.17188 25.8418C6.83203 25.7363 6.5625 25.584 6.36328 25.3848C6.17578 25.1855 6.04688 24.9336 5.97656 24.6289C5.90625 24.3242 5.87109 23.9668 5.87109 23.5566V3.32422Z" fill="#CA7BBB"/>
</svg>
